<?xml version="1.0" encoding="utf-8"?>
<svg viewBox="0 0 1000 1550" xmlns="http://www.w3.org/2000/svg">
  <path d="M279.44 1264.52s61.79 24.3 203.69 19.79S676 1248.13 676 1248.13l20.1 342.24-158.7-1.85-28.9-196.61-25.5 8.68-8.84 196.24-153.94-.22z" fill="#262521" stroke="#262521" stroke-linecap="round" stroke-linejoin="round" stroke-width="3"/>
  <path d="M287.69 1428.1c6.32-10.21-12.92-15.86-12.92-15.86 1.76-.87 2.94-2.68 3.69-5.12 11.34-.8 1.19-10.22 1.05-10.36-.35-15.31-6.22-36.06-6.22-36.06 9.27-57.26-11.13-72.31-18.17-87.51a23 23 0 01-1.62-5.39l5.07-94.64s13.72-110.92 24.87-134.67c.6-12.09 1.78-36.18 3.1-63 2.65-53.92 5.84-118.78 5.84-118.78l-4.11-7.63c-20.13 32-85.17 5-85.17 5v90.56s-11.56 29.6-10.81 78.71 14.9 199.37 10.81 218.06 6.38 30.65 6.38 30.65-2.2 65.23-7 81.17.37 21.88 5.19 27.07 23 43.39 23 43.39 29.67 17.8 36 18.54 15.58 3 15.58 3a8.28 8.28 0 002.92-4.4l.12.14c12.71-8.88 2.4-12.87 2.4-12.87zm-35.08-70.37s-1.57 5.19 0 20.4c.2 1.87.5 3.89.92 6l-4-1.7-8.5-15zm-4.11 45l-.93-4.4s9.81 2.31 11.2 3.1l2.18 6.06z" fill="#fff"/>
  <path d="M283.44 1038.49s-24.61 101.2-25 138.66-10.38 80.83-3.33 96 27.44 30.25 18.17 87.51c0 0 13 45.83 1.48 51.54s-20.58-18.91-22.16-34.11 0-20.4 0-20.4l-9.36-11.49" fill="none" stroke="#262521" stroke-linecap="round" stroke-miterlimit="10" stroke-width="3"/>
  <path d="M252.61 1357.73c-4.09 4.29-10.09 5.29-12.09 11.29-1 5 1 9 0 14a12.68 12.68 0 001 6c5 7 7 14 8 22 5 3 10 4 13 9 2 5 6 6 11 8 4 2 8 3 10 7 2 3 4 8-1 10-5 1-10-1-15-3-13-3-23-11-35-17-2-1-3-3-4-5-8-17-15-33-27-48-1-2-1-5-1-8 7-31 8-61 9-92a32.87 32.87 0 01-7-16c0-19 1-39 0-58-3-67-12-132-10-199 1-19 4-37 11-55 0 0 0-78-.42-89.89M283.44 1038.49a162.09 162.09 0 01-5.11 21.92" fill="none" stroke="#262521" stroke-linecap="round" stroke-miterlimit="10" stroke-width="3"/>
  <path fill="none" stroke="#262521" stroke-linecap="round" stroke-miterlimit="10" stroke-width="3" d="M241.03 1367.37l8.5 15.03 3.97 1.55M279.5 1396.76s10.39 9.55-1 10.36M245.86 1396.76l13.55 5.18M247.98 1403.57l15.37 4.67M274.77 1412.24s19.78 4.64 13.47 14.85M263.35 1420.17s44 6.42 21.88 20.81"/>
  <path d="M704.21 1425.39l.11-.15a8.3 8.3 0 003.45 4s8.92-3.37 15.08-4.9 33.35-22.92 33.35-22.92 13.22-40.18 17.35-45.93 8.53-12.3 1.75-27.51-17.18-79.64-17.18-79.64 8.88-13.19 2.48-31.21-11.26-168.87-16.7-217.69-20.63-76.73-20.63-76.73l-10.81-85.29c-35.9 20.67-74.55 12.21-74.55 12.21s12 143.46 18.39 179.36c14.06 22.16 40.68 127.35 40.68 127.35l16.94 93.26a23.59 23.59 0 01-.93 5.54c-5.08 16-23.42 33.47-7 89.11 0 0-3.22 21.32-1.64 36.56-.13.15-9 10.77 2.35 10.14 1 2.32 2.45 4 4.3 4.62 0 0-18.38 8-10.82 17.35-.02 0-9.76 5.26 4.03 12.47zm34.59-78.58l-6.53 16-3.76 2.19c.15-2.12.2-4.16.16-6-.35-15.28-2.57-20.23-2.57-20.23zm-14.7 42.32l1.39-6.29c1.28-1 10.73-4.47 10.73-4.47l-.38 4.48z" fill="#fff"/>
  <path d="M735.06 1389.71c.06-2.22.18-4.44.41-6.66l-6.06 3.24q2.78 1.8 5.65 3.42z" fill="#262521" opacity=".09"/>
  <path d="M726.1 1338.7l12.7 8.11 2.66 21c-4.19 2.4-5.93 23.93-5.93 23.93-12.64 6.46-13.31 15.89-13.31 15.89-29.32 13.43-14.45 21.64-14.45 21.64s8.92-3.37 15.08-4.9 33.35-22.92 33.35-22.92 13.22-40.18 17.35-45.93 8.53-12.3 1.75-27.51-17.18-79.64-17.18-79.64 8.88-13.19 2.48-31.21-11.26-168.87-16.7-217.69-20.63-76.73-20.63-76.73l-10.81-85.29" fill="none" stroke="#262521" stroke-linecap="round" stroke-miterlimit="10" stroke-width="3"/>
  <path d="M656.81 1030.33s35.71 92.85 40.79 130 20.46 78.89 15.39 94.86-23.42 33.47-7 89.11c0 0-7.12 47.09 5 51.32s18-21.35 17.69-36.64-2.57-20.23-2.57-20.23l7.84-12.58" fill="none" stroke="#262521" stroke-linecap="round" stroke-miterlimit="10" stroke-width="3"/>
  <path fill="none" stroke="#262521" stroke-linecap="round" stroke-miterlimit="10" stroke-width="3" d="M738.8 1346.81l-6.53 15.98-3.75 2.03M704.34 1380.8s-9.1 10.78 2.34 10.15M737.71 1376.57l-12.79 6.84M736.47 1383.6l-14.66 6.56M711 1395.57s-19.05 7.09-11.49 16.42M723.31 1402s-42.9 11.92-19.1 23.4M739.69 1370.12s8 7.36 25.09 6.45M735.89 1388.16s7 7.44 22.11 6.87"/>
  <g transform="matrix(0.05357200279831886, 0, 0, -0.05265800282359123, 342.5885073577707, 531.8434547305749)" fill="#000000" stroke="none" style="">
    <path d="M2275 6019 c-4 -6 -19 -7 -35 -4 -15 3 -68 -2 -116 -11 -49 -10 -100 -17 -114 -16 -14 0 -52 -12 -85 -27 -33 -16 -78 -32 -100 -36 -21 -3 -44 -14 -51 -22 -7 -11 -28 -17 -60 -17 -48 -1 -72 -12 -163 -73 -19 -13 -42 -23 -51 -23 -10 0 -29 -9 -43 -20 -14 -11 -30 -20 -35 -20 -18 0 -207 -131 -263 -182 -16 -16 -35 -28 -42 -28 -7 0 -33 -25 -57 -55 -25 -29 -51 -54 -57 -55 -7 0 -19 -13 -28 -30 -8 -16 -28 -36 -44 -44 -16 -9 -32 -23 -35 -33 -4 -9 -25 -40 -47 -67 -81 -103 -128 -173 -166 -246 -22 -41 -44 -84 -50 -95 -45 -84 -110 -256 -139 -370 -4 -16 -9 -37 -11 -45 -15 -50 -33 -191 -30 -227 3 -23 -1 -47 -7 -53 -7 -7 -12 -96 -13 -275 -1 -145 -4 -269 -8 -275 -3 -5 8 -18 25 -28 26 -14 30 -21 25 -42 -4 -14 -6 -34 -7 -45 0 -29 -18 -186 -24 -213 -4 -20 -7 -22 -19 -12 -12 10 -27 0 -84 -58 -80 -80 -94 -114 -89 -212 3 -68 3 -68 53 -59 17 3 20 -1 17 -23 -2 -19 1 -26 10 -23 7 3 25 -6 40 -20 15 -14 32 -25 38 -25 19 0 10 -16 -24 -45 -32 -27 -34 -32 -30 -79 2 -28 6 -71 10 -95 4 -29 2 -46 -5 -51 -23 -14 -2 -56 35 -69 19 -7 34 -19 34 -27 0 -8 10 -18 23 -23 37 -14 50 -36 31 -52 -13 -11 -17 -10 -26 2 -7 11 -8 9 -3 -6 4 -11 10 -31 13 -45 3 -14 10 -28 16 -32 8 -5 7 -13 -1 -28 -17 -27 -18 -49 -1 -32 21 21 38 13 38 -18 0 -28 -19 -44 -21 -17 -2 23 -27 -68 -28 -101 -1 -18 -10 -51 -21 -72 -20 -40 -20 -40 -1 -83 10 -23 21 -51 23 -62 2 -13 12 -21 30 -23 26 -3 26 -4 21 -60 -6 -54 -5 -56 11 -42 16 13 20 12 38 -12 10 -15 25 -25 32 -22 10 4 15 -11 20 -55 9 -81 23 -118 47 -124 13 -4 19 -14 19 -36 0 -39 38 -81 74 -81 30 0 35 -14 9 -25 -17 -6 -17 -7 0 -19 9 -7 17 -21 17 -31 0 -10 8 -27 17 -38 17 -18 17 -19 0 -32 -10 -7 -26 -11 -36 -8 -10 3 -21 -2 -24 -10 -4 -11 5 -17 39 -22 28 -4 44 -11 44 -20 0 -9 -6 -12 -15 -9 -8 4 -15 1 -15 -5 0 -7 6 -14 13 -16 14 -6 18 -75 4 -75 -5 0 -6 -7 -3 -16 3 -9 -1 -25 -9 -37 -8 -12 -15 -28 -15 -36 0 -13 3 -12 17 2 16 16 18 15 30 -15 10 -23 10 -34 2 -44 -17 -20 -37 -17 -44 7 -9 28 -19 15 -21 -27 0 -24 4 -34 15 -35 9 -1 23 -2 31 -3 8 -2 23 -3 33 -4 21 -2 23 -22 1 -22 -8 0 -12 -4 -9 -10 10 -17 -7 -11 -22 8 -13 16 -14 15 -8 -8 4 -14 8 -34 9 -46 1 -11 5 -25 9 -31 4 -6 5 -17 2 -25 -3 -8 13 -42 35 -77 40 -61 46 -87 15 -61 -16 13 -45 7 -45 -9 0 -5 14 -12 30 -16 17 -4 28 -10 25 -15 -3 -5 0 -21 7 -35 10 -23 10 -29 -3 -39 -19 -14 -39 -49 -39 -70 0 -9 11 -18 25 -22 19 -5 25 -13 25 -35 0 -16 5 -29 11 -29 6 0 9 -9 6 -20 -7 -26 5 -26 28 0 21 23 35 26 35 6 0 -7 7 -19 15 -26 10 -9 12 -17 5 -30 -11 -20 4 -30 43 -30 22 -1 57 -21 57 -34 0 -13 -45 -23 -67 -15 -27 10 -29 2 -8 -27 8 -12 11 -24 8 -28 -3 -3 -2 -6 4 -6 5 0 20 11 33 25 24 26 54 33 65 15 3 -5 -6 -31 -19 -59 -23 -44 -24 -50 -8 -56 10 -3 12 -9 6 -13 -5 -4 -11 -18 -11 -31 -1 -13 -4 -25 -6 -27 -5 -6 -57 20 -57 29 0 4 -4 7 -10 7 -18 0 -10 -20 13 -31 28 -12 78 -85 52 -75 -9 3 -19 6 -21 6 -2 0 -4 6 -4 13 0 7 -9 18 -20 24 -16 11 -18 10 -14 -1 8 -20 -14 -30 -32 -15 -20 17 -26 7 -14 -26 l10 -27 -40 7 c-26 4 -40 3 -40 -4 0 -7 25 -10 71 -9 40 1 67 4 60 6 -17 6 -2 22 21 22 13 0 18 -5 15 -14 -7 -17 34 -18 45 -1 5 6 8 6 8 -2 0 -10 138 -13 655 -13 574 0 656 2 661 15 4 8 11 15 16 15 6 0 5 -6 -2 -15 -10 -12 -10 -15 3 -15 22 0 37 23 30 48 -3 13 -1 22 6 22 6 0 11 -17 12 -37 l1 -38 9 30 c5 17 7 41 4 55 -4 19 1 32 19 49 25 24 46 21 46 -5 0 -8 5 -14 11 -14 7 0 8 11 4 30 -7 31 -2 35 38 31 9 -1 17 3 17 8 0 6 -8 11 -17 11 -14 1 -12 7 12 29 39 36 55 65 55 97 0 19 4 25 14 21 8 -3 20 1 27 9 9 11 22 14 45 9 35 -6 54 9 35 28 -15 15 -13 48 3 70 19 24 27 21 24 -9 -2 -15 2 -28 7 -30 12 -5 14 76 2 94 -10 15 9 42 28 42 13 0 25 21 25 46 0 8 18 30 40 50 28 25 41 47 45 72 4 21 12 48 19 62 7 14 11 31 9 38 -3 7 4 12 16 12 12 0 21 5 21 10 0 6 -6 10 -14 10 -8 0 -18 5 -22 11 -8 13 16 31 32 25 15 -6 36 42 29 65 -4 12 1 21 15 29 13 7 20 21 20 41 0 22 6 32 25 39 14 5 25 15 25 22 0 7 10 18 23 23 16 7 22 19 23 41 0 18 9 44 20 59 10 15 24 35 29 43 21 31 57 62 65 57 14 -9 52 35 46 51 -3 8 -9 21 -12 30 -4 10 0 17 12 20 11 3 27 25 38 50 10 24 24 44 31 44 6 0 25 11 41 25 16 14 35 30 42 36 7 6 11 17 8 25 -3 9 1 14 14 14 26 0 30 9 36 92 3 50 10 77 20 85 19 14 10 35 -11 26 -11 -4 -13 -1 -9 10 3 9 12 13 20 10 9 -3 14 2 14 15 0 12 5 24 10 27 6 3 10 19 10 36 0 16 -4 29 -10 29 -5 0 -10 10 -10 21 0 19 4 20 35 15 37 -7 36 -10 49 72 4 23 2 32 -8 32 -14 0 -26 21 -26 46 0 10 7 13 25 8 22 -5 25 -3 25 20 0 15 7 29 15 32 8 4 15 13 15 20 0 8 11 31 25 52 14 22 26 57 29 86 4 41 1 52 -17 67 -12 10 -25 18 -28 19 -3 0 -18 -36 -33 -81 -28 -82 -108 -254 -161 -344 -26 -45 -101 -144 -140 -186 -8 -9 -15 -20 -15 -25 -1 -5 -21 -29 -45 -54 -25 -25 -45 -47 -45 -50 0 -3 -31 -39 -70 -80 -38 -41 -73 -82 -76 -92 -3 -10 -12 -18 -20 -18 -8 0 -14 -9 -14 -19 0 -16 -6 -19 -36 -18 -19 2 -38 7 -42 12 -24 34 -72 41 -72 12 0 -12 -69 -77 -81 -77 -4 0 -11 -9 -14 -20 -8 -25 -62 -28 -71 -5 -5 12 -9 13 -21 3 -11 -9 -16 -9 -23 2 -7 11 -11 11 -24 1 -36 -30 -55 34 -21 67 35 33 37 68 7 104 -23 27 -24 31 -9 40 9 5 17 14 17 19 0 6 -4 8 -9 4 -15 -9 -100 -17 -176 -17 -87 0 -597 69 -685 93 -42 11 -93 6 -98 -10 -5 -16 -49 -3 -79 25 -14 13 -29 24 -34 24 -14 0 -69 -78 -69 -99 0 -12 -5 -21 -11 -21 -6 0 -9 -10 -8 -22 1 -13 -1 -37 -5 -54 -6 -25 -13 -33 -36 -36 -16 -3 -31 0 -34 6 -2 7 -8 7 -17 -1 -21 -21 -39 -15 -39 12 0 21 -5 25 -29 25 -23 0 -34 8 -51 35 -12 19 -30 35 -40 35 -14 0 -17 5 -13 22 5 19 3 21 -7 11 -18 -16 -39 11 -40 50 0 22 -5 27 -24 27 -14 0 -28 -4 -31 -10 -9 -14 -21 -12 -39 5 -17 18 -50 9 -42 -12 3 -7 -1 -16 -9 -19 -8 -4 -15 -12 -15 -18 0 -20 -53 -62 -73 -58 -21 4 -22 -14 -2 -35 14 -14 14 -17 -2 -35 -17 -19 -18 -19 -27 4 -6 13 -11 25 -13 27 -2 3 -17 -8 -33 -24 -30 -29 -54 -29 -30 0 11 14 7 19 -12 16 -5 0 -8 10 -8 23 0 13 -7 29 -15 36 -17 14 -20 56 -4 66 6 3 9 17 6 30 -6 31 11 32 18 1 4 -14 21 -29 46 -40 49 -21 47 -22 41 8 -2 14 -11 25 -18 25 -19 0 -18 19 1 26 8 4 12 10 9 15 -8 14 -24 11 -24 -5 0 -16 -18 -31 -27 -22 -3 3 8 21 26 41 17 20 31 39 31 43 0 27 -23 82 -34 82 -16 0 -26 22 -26 56 0 13 -4 24 -10 24 -12 0 -13 -59 -2 -77 10 -16 3 -83 -9 -83 -5 0 -9 7 -9 17 0 9 -3 13 -7 10 -11 -12 -43 25 -43 50 0 12 9 32 21 44 16 16 20 29 16 52 -8 47 -25 104 -27 92 -1 -5 -8 13 -14 40 -7 31 -18 50 -26 50 -8 0 -17 9 -20 20 -3 11 -11 29 -17 40 -11 17 -14 18 -23 5 -8 -13 -10 -13 -10 2 0 9 -7 24 -15 32 -9 8 -27 39 -41 68 -14 29 -32 64 -39 78 -8 14 -26 50 -40 82 -15 31 -29 59 -33 62 -3 4 -8 19 -9 34 -2 15 -7 36 -12 47 -29 63 -71 295 -71 388 0 23 -9 92 -21 152 -35 185 -24 286 66 585 30 98 83 275 116 386 5 17 9 36 9 44 0 7 25 63 56 123 39 77 55 119 52 138 -4 24 -2 26 13 19 14 -8 23 -1 48 39 17 26 31 55 31 64 0 8 6 22 13 29 24 24 37 56 37 92 0 19 4 37 10 41 6 3 5 15 -2 30 -13 28 1 66 36 97 15 14 18 27 14 67 -3 28 -1 54 4 59 5 5 11 35 14 68 3 33 11 66 20 75 9 10 13 23 9 28 -3 6 -1 11 6 11 14 0 38 30 39 48 0 22 108 160 144 184 18 13 61 42 95 66 35 23 66 42 70 42 5 0 19 8 32 18 56 43 137 79 194 86 32 4 62 11 65 16 3 5 42 11 87 13 45 2 88 9 95 14 19 16 130 35 141 24 5 -5 41 -2 85 8 46 10 116 16 172 15 52 -1 102 2 110 6 8 4 36 2 63 -5 29 -7 92 -10 166 -8 102 3 125 1 162 -16 48 -21 69 -26 179 -44 43 -7 88 -21 105 -33 17 -12 53 -25 80 -29 28 -4 59 -12 70 -18 11 -6 24 -10 29 -9 5 2 16 -3 25 -11 9 -7 48 -33 86 -57 80 -49 262 -228 317 -311 70 -106 156 -295 193 -421 39 -136 73 -351 69 -438 -2 -30 -5 -170 -7 -310 -2 -140 -9 -305 -16 -365 -19 -167 -11 -179 31 -45 31 100 67 265 82 380 3 19 10 64 17 100 6 36 12 81 12 100 0 49 -12 259 -18 295 -2 17 -7 45 -9 63 -3 18 -14 45 -25 60 -14 20 -19 43 -19 83 1 40 -6 67 -26 105 -14 29 -26 60 -26 70 0 11 -9 33 -19 50 -11 18 -17 41 -14 56 3 14 -1 31 -10 39 -8 8 -22 29 -30 46 -9 17 -23 33 -31 36 -9 4 -13 12 -10 20 2 7 -9 31 -26 52 -17 21 -33 48 -36 60 -3 12 -19 32 -35 44 -16 12 -29 28 -29 36 0 8 -7 15 -15 15 -9 0 -20 10 -25 23 -15 36 -36 57 -57 57 -15 0 -20 7 -20 28 0 33 -84 125 -148 162 -22 13 -55 41 -74 62 -19 21 -38 38 -44 38 -5 0 -39 27 -75 60 -65 58 -184 130 -216 130 -9 0 -16 4 -16 9 0 8 -49 28 -130 52 -25 7 -49 15 -55 19 -18 11 -79 28 -123 35 -23 4 -54 9 -70 11 -15 3 -40 6 -57 9 -16 2 -64 9 -105 15 -117 18 -178 21 -185 9z m-1840 -2864 c-6 -60 -26 -98 -39 -77 -7 12 8 95 24 137 17 42 24 16 15 -60z m-45 -111 c0 -8 -4 -12 -10 -9 -5 3 -10 10 -10 16 0 5 5 9 10 9 6 0 10 -7 10 -16z m33 -290 c15 -6 12 -44 -4 -44 -5 0 -9 -7 -9 -16 0 -8 -4 -12 -10 -9 -11 7 -14 58 -3 68 8 8 8 8 26 1z m67 -198 c0 -3 -4 -8 -10 -11 -5 -3 -10 -1 -10 4 0 6 5 11 10 11 6 0 10 -2 10 -4z m486 -774 c-18 -16 -18 -16 -6 6 6 13 14 21 18 18 3 -4 -2 -14 -12 -24z m-79 -29 c-3 -3 -11 -2 -17 2 -9 6 -9 10 1 16 14 8 27 -7 16 -18z m-212 -63 c-3 -5 -10 -10 -16 -10 -5 0 -9 5 -9 10 0 6 7 10 16 10 8 0 12 -4 9 -10z m879 -276 c9 -3 16 -10 16 -16 0 -14 -43 -5 -48 10 -4 13 7 15 32 6z m42 -72 c25 -7 50 -9 56 -6 7 4 8 2 4 -4 -4 -6 6 -18 23 -27 20 -10 32 -11 36 -4 5 7 13 5 25 -6 10 -9 24 -14 29 -10 23 14 56 14 71 0 20 -18 89 -22 118 -6 16 8 27 9 35 3 7 -6 17 -11 22 -12 6 0 19 -3 30 -5 11 -3 33 -7 49 -10 16 -2 32 -8 35 -12 3 -4 30 -16 58 -26 39 -13 58 -15 72 -8 18 10 146 6 201 -6 14 -3 45 -6 70 -8 24 -2 46 -8 48 -14 2 -6 14 -8 27 -5 18 4 33 -4 72 -43 45 -43 49 -51 45 -85 -2 -20 -13 -44 -23 -54 -10 -9 -19 -28 -19 -41 0 -24 -23 -32 -35 -12 -9 14 -30 6 -30 -12 0 -8 -8 -13 -16 -11 -9 1 -22 -5 -29 -13 -11 -14 -16 -12 -39 14 -33 38 -81 52 -81 24 0 -32 -13 -35 -26 -6 -8 19 -13 22 -13 11 -1 -11 -10 -19 -23 -20 -62 -4 -80 -3 -84 4 -8 12 -44 -11 -44 -27 0 -22 -28 -18 -41 6 -8 15 -13 18 -19 10 -9 -16 -20 8 -21 47 -1 31 -5 22 -14 -31 -6 -35 -9 -38 -30 -33 -15 4 -25 1 -29 -9 -3 -8 -10 -15 -17 -15 -6 0 -8 7 -5 16 5 12 1 14 -16 8 -15 -4 -26 0 -38 16 -15 20 -18 21 -33 6 -17 -18 -43 -21 -52 -7 -3 6 -17 6 -35 1 -27 -8 -29 -6 -36 23 l-7 32 -9 -25 -10 -25 -9 23 c-4 12 -14 22 -22 22 -15 0 -63 51 -59 63 4 14 -21 7 -33 -10 -8 -11 -18 -14 -31 -8 -10 4 -24 7 -30 6 -6 -1 -26 13 -45 29 -27 26 -39 31 -73 28 -34 -2 -43 1 -51 20 -5 12 -15 22 -22 22 -7 0 -13 5 -13 10 0 7 -7 7 -17 2 -26 -13 -90 -14 -98 -2 -3 5 2 10 13 10 11 0 25 7 32 15 10 12 10 15 -4 15 -19 0 -20 5 -5 31 5 11 15 17 21 13 16 -10 27 16 21 48 -5 28 -4 29 37 32 10 1 14 10 12 30 -3 25 -1 28 15 22 10 -4 29 -10 43 -12 23 -4 23 -3 8 9 -14 11 -15 16 -5 26 9 10 13 9 15 -1 1 -8 23 -19 48 -26z m-726 -85 c0 -19 -10 -27 -26 -20 -11 4 -12 9 -3 19 15 18 29 18 29 1z m559 -176 c-8 -12 -19 -16 -33 -13 -19 5 -18 7 9 18 17 7 31 13 33 14 1 0 -3 -8 -9 -19z m-559 -1 c0 -5 -4 -10 -10 -10 -5 0 -10 5 -10 10 0 6 5 10 10 10 6 0 10 -4 10 -10z m1886 -37 c-10 -10 -19 5 -10 18 6 11 8 11 12 0 2 -7 1 -15 -2 -18z m-256 -118 c0 -8 -4 -15 -10 -15 -5 0 -10 7 -10 15 0 8 5 15 10 15 6 0 10 -7 10 -15z m-1575 -245 c3 -5 2 -10 -4 -10 -5 0 -13 5 -16 10 -3 6 -2 10 4 10 5 0 13 -4 16 -10z m1985 -40 c0 -5 -5 -10 -11 -10 -5 0 -7 5 -4 10 3 6 8 10 11 10 2 0 4 -4 4 -10z m-2022 -82 c-6 -18 -28 -21 -28 -4 0 9 7 16 16 16 9 0 14 -5 12 -12z m1962 2 c0 -5 -4 -10 -10 -10 -5 0 -10 5 -10 10 0 6 5 10 10 10 6 0 10 -4 10 -10z m-1803 -132 c1 -15 -2 -30 -7 -33 -11 -7 -42 50 -33 59 15 15 38 -1 40 -26z m1573 -178 c0 -16 -4 -30 -10 -30 -11 0 -14 43 -3 53 11 12 13 8 13 -23z m-1476 -15 c-4 -8 -8 -15 -10 -15 -2 0 -4 7 -4 15 0 8 4 15 10 15 5 0 7 -7 4 -15z m498 -67 c-6 -6 -15 -8 -19 -4 -4 4 -1 11 7 16 19 12 27 3 12 -12z m57 -26 c16 -30 3 -57 -35 -68 -47 -15 -60 1 -40 50 12 28 21 36 40 36 14 0 30 -8 35 -18z m-549 -13 c0 -14 -17 -10 -23 5 -4 10 -1 13 9 9 7 -3 14 -9 14 -14z m-10 -55 c0 -8 -6 -11 -15 -8 -8 4 -15 9 -15 13 0 4 7 8 15 8 8 0 15 -6 15 -13z"/>
    <path d="M1585 1260 c-3 -5 1 -10 9 -10 9 0 16 5 16 10 0 6 -4 10 -9 10 -6 0 -13 -4 -16 -10z"/>
    <path d="M1463 1203 c-3 -10 -8 -21 -10 -25 -10 -19 6 -5 21 17 9 14 12 25 6 25 -6 0 -13 -8 -17 -17z"/>
    <path d="M1487 4678 c-10 -5 -25 -7 -33 -4 -15 6 -74 -32 -171 -107 -50 -38 -117 -114 -162 -181 l-32 -48 33 21 c18 11 48 28 66 38 17 9 32 23 32 30 0 9 14 13 43 13 23 0 51 6 62 14 31 20 100 26 124 10 11 -8 43 -16 73 -19 73 -7 116 -23 123 -46 4 -10 11 -19 16 -19 15 0 10 -30 -7 -37 -8 -3 -25 -1 -37 5 -42 20 -60 22 -74 11 -7 -7 -16 -9 -20 -6 -3 3 -21 0 -40 -8 -20 -8 -43 -15 -53 -15 -9 0 -31 -18 -49 -40 -17 -22 -40 -40 -49 -40 -9 0 -28 -9 -42 -20 -14 -11 -28 -20 -33 -20 -13 0 -177 -164 -177 -177 0 -7 -5 -13 -11 -13 -6 0 -9 -10 -7 -22 8 -56 101 -16 162 70 19 26 49 58 66 70 26 20 31 29 26 50 -5 21 -4 23 4 12 9 -13 14 -11 31 13 11 15 27 27 34 27 8 0 18 7 23 17 8 13 21 15 85 10 41 -3 83 -10 93 -15 11 -5 63 -31 117 -56 53 -26 97 -51 97 -56 0 -4 25 -34 55 -65 30 -32 55 -64 55 -71 0 -16 75 -94 113 -117 27 -17 100 -19 125 -3 7 4 17 4 22 1 12 -8 12 -10 0 56 -9 49 -26 97 -50 140 -6 12 -1 28 19 55 37 51 45 74 26 74 -8 0 -15 -4 -15 -10 0 -5 -4 -10 -8 -10 -4 0 -6 16 -4 35 2 19 8 35 14 35 12 0 -1 69 -18 97 -8 12 -14 29 -14 37 0 15 -59 66 -76 66 -5 0 -23 13 -39 28 -17 16 -46 32 -64 35 -19 4 -42 13 -50 21 -9 8 -32 16 -51 19 -84 14 -98 19 -109 43 -12 26 -12 26 -91 26 -30 -1 -59 3 -65 7 -5 5 -23 11 -38 15 -15 4 -25 11 -22 16 9 14 -9 19 -28 8z"/>
    <path d="M3133 4303 c-18 -2 -33 -8 -33 -13 0 -5 -15 -12 -32 -15 -51 -11 -119 -51 -139 -82 -10 -15 -24 -36 -31 -45 -10 -14 -9 -21 9 -40 26 -28 18 -50 -27 -68 -16 -7 -30 -16 -30 -21 0 -4 -10 -9 -22 -11 -13 -2 -21 -7 -19 -13 5 -12 37 -8 74 10 24 12 27 12 27 -5 0 -11 -12 -22 -32 -29 -45 -16 -68 -40 -68 -72 0 -15 -5 -39 -11 -52 -10 -21 -7 -28 27 -61 31 -30 44 -36 66 -32 42 8 44 -13 4 -50 -46 -42 -47 -70 -3 -88 17 -8 53 -24 79 -35 26 -12 55 -21 63 -21 8 0 23 -4 33 -9 9 -4 49 -23 89 -42 70 -33 89 -49 58 -49 -8 0 -49 11 -92 25 -112 36 -125 33 -72 -14 56 -50 212 -119 309 -136 67 -12 83 -11 137 3 34 10 65 21 69 25 4 4 15 7 24 7 9 0 29 14 45 30 16 17 35 30 43 30 7 0 12 6 9 13 -2 6 2 20 11 30 10 11 11 17 4 17 -7 0 -12 9 -12 20 0 15 -7 20 -25 20 -34 0 -63 43 -44 67 13 15 11 16 -13 9 -23 -5 -34 -1 -59 24 -20 18 -43 30 -59 30 -15 0 -33 6 -39 14 -7 8 -25 14 -40 14 -15 -1 -38 5 -51 12 -13 7 -43 14 -66 16 -23 1 -70 16 -106 33 -35 16 -76 33 -91 36 -36 9 -55 33 -33 41 10 4 15 12 12 19 -5 15 47 67 89 88 17 8 68 22 114 32 77 15 108 15 179 -2 16 -4 22 -1 22 12 0 9 5 13 10 10 21 -13 9 20 -17 47 -21 22 -24 30 -14 42 19 23 125 10 169 -21 19 -12 45 -23 58 -23 13 0 39 -14 58 -31 l35 -30 5 23 c7 35 3 98 -6 98 -4 0 -8 7 -8 15 0 8 -25 46 -55 84 -54 66 -87 87 -135 83 -8 0 -37 6 -64 15 -44 15 -49 15 -58 0 -7 -13 -14 -14 -33 -7 -13 5 -62 12 -107 15 -46 3 -99 7 -118 9 -19 2 -50 2 -67 -1z m-53 -693 c0 -5 -2 -10 -4 -10 -3 0 -8 5 -11 10 -3 6 -1 10 4 10 6 0 11 -4 11 -10z m366 -75 c35 -34 -48 -74 -115 -56 -9 2 75 70 87 71 7 0 20 -7 28 -15z"/>
    <path d="M1379 4034 c-1 -5 -2 -16 -3 -24 0 -9 -11 -15 -26 -16 -14 0 -55 -4 -92 -8 -50 -6 -68 -12 -68 -23 0 -10 -6 -14 -17 -10 -47 13 -48 12 -45 -12 1 -13 -5 -32 -13 -41 -9 -9 -13 -24 -10 -33 4 -8 2 -18 -4 -22 -21 -12 -12 -43 15 -49 25 -7 25 -8 8 -21 -18 -12 -17 -14 14 -32 17 -10 32 -23 32 -30 0 -20 19 -25 36 -9 21 22 36 11 28 -21 -6 -23 -5 -24 13 -12 26 16 97 4 89 -16 -5 -15 11 -32 34 -34 8 0 77 -3 154 -5 147 -4 176 1 283 49 63 29 81 50 33 40 -28 -6 -123 -8 -237 -6 -50 1 -39 18 16 25 58 8 92 32 127 92 14 24 32 44 39 44 7 0 20 -19 30 -42 20 -50 29 -58 71 -58 17 0 46 -5 63 -11 47 -17 81 1 81 42 0 23 -13 44 -57 90 -31 32 -62 59 -68 59 -7 0 -15 6 -18 13 -3 7 -24 13 -49 14 -25 2 -57 7 -72 13 -15 5 -40 10 -55 10 -15 0 -31 4 -36 9 -6 5 -28 11 -50 14 -22 2 -54 10 -71 17 -28 12 -34 11 -49 -3 -21 -22 -83 -22 -107 0 -10 9 -19 12 -19 7z m75 -194 c10 -27 24 -54 32 -61 19 -15 18 -29 -3 -29 -28 0 -122 49 -133 70 -14 26 -13 40 5 40 8 0 24 9 35 20 27 27 43 17 64 -40z m-244 -40 c0 -5 -2 -10 -4 -10 -3 0 -8 5 -11 10 -3 6 -1 10 4 10 6 0 11 -4 11 -10z m-30 -30 c0 -5 -5 -10 -11 -10 -5 0 -7 5 -4 10 3 6 8 10 11 10 2 0 4 -4 4 -10z"/>
    <path d="M3636 3768 c5 -58 35 -156 57 -185 6 -9 15 -10 28 -2 15 8 19 21 19 69 0 33 -4 60 -10 60 -5 0 -10 7 -10 15 0 9 -20 36 -44 61 l-45 45 5 -63z"/>
    <path d="M2054 3749 c-11 -18 11 -32 25 -16 9 12 8 16 -3 20 -9 4 -18 1 -22 -4z"/>
    <path d="M1159 3671 c12 -22 36 -28 46 -10 9 13 6 16 -29 25 -26 6 -27 5 -17 -15z"/>
    <path d="M142 3626 c-55 -62 -60 -165 -20 -384 l12 -64 23 99 c13 54 30 132 38 173 10 50 24 88 45 116 36 50 37 58 8 78 -37 26 -73 20 -106 -18z"/>
    <path d="M3955 3066 c-52 -22 -58 -38 -51 -124 11 -120 17 -152 32 -152 7 0 27 27 43 60 26 51 31 72 31 134 0 86 -10 101 -55 82z"/>
    <path d="M2014 2981 c-29 -13 -61 -56 -69 -91 -5 -24 -12 -30 -34 -30 -19 0 -32 8 -41 25 l-13 25 -15 -21 c-8 -12 -14 -33 -13 -47 1 -15 2 -35 2 -44 0 -10 4 -18 10 -18 5 0 8 -10 6 -22 -1 -17 4 -24 20 -26 12 -2 25 -12 28 -23 4 -10 11 -19 17 -19 6 0 26 -11 44 -25 18 -14 41 -25 52 -25 10 0 21 -3 24 -6 10 -10 -87 -101 -116 -108 -16 -4 -30 -16 -33 -26 -3 -11 -11 -20 -18 -20 -7 0 -15 -6 -18 -13 -3 -8 -19 -12 -43 -11 -39 2 -98 -18 -109 -36 -3 -6 -23 -10 -45 -10 -49 0 -136 -40 -132 -60 1 -9 -15 -26 -36 -40 -22 -14 -71 -55 -110 -91 -55 -51 -73 -74 -82 -110 -6 -24 -22 -65 -35 -91 -15 -30 -20 -50 -14 -54 7 -4 8 -31 4 -73 -5 -50 -3 -71 8 -85 14 -19 15 -19 26 2 6 12 20 22 30 22 10 0 24 7 31 15 7 8 21 15 32 15 15 0 19 5 15 20 -7 26 23 43 59 34 18 -5 34 0 54 14 21 16 40 20 77 18 33 -2 64 4 98 19 102 45 352 59 458 26 132 -41 166 -48 202 -44 22 2 96 -3 164 -11 l125 -15 82 -57 c95 -65 150 -120 160 -158 3 -15 13 -30 21 -33 7 -3 37 -28 66 -56 29 -28 59 -52 67 -53 8 -1 23 -5 34 -9 15 -7 17 -5 11 13 -5 19 -2 22 19 22 19 0 26 5 26 19 0 11 4 21 8 23 20 8 66 83 64 103 -2 13 3 25 12 28 18 7 23 77 6 77 -12 0 -29 41 -34 80 -3 25 -45 127 -66 160 -6 8 -14 25 -20 37 -17 40 -91 113 -114 113 -14 0 -39 20 -70 55 -33 39 -54 55 -72 55 -18 0 -29 9 -41 35 -9 19 -22 35 -29 35 -7 0 -18 18 -24 39 -14 53 -80 107 -80 66 0 -20 -16 -19 -48 3 -45 31 -49 32 -48 9 1 -30 -28 -33 -55 -6 -20 20 -22 20 -17 3 2 -10 -4 -27 -13 -36 -24 -22 -37 -5 -33 45 2 31 0 37 -17 37 -31 0 -24 42 11 68 35 26 48 27 78 6 22 -15 24 -15 28 4 5 17 9 18 29 8 14 -6 25 -21 27 -36 5 -40 26 -28 42 22 5 16 9 16 52 -7 77 -41 100 -34 150 45 22 34 29 59 31 102 1 51 -2 61 -28 89 -27 29 -33 31 -82 27 -39 -3 -66 -13 -107 -41 -47 -32 -62 -37 -110 -36 -30 0 -64 4 -74 8 -11 4 -35 2 -55 -5 -63 -23 -74 -18 -125 47 -36 46 -61 67 -104 87 -60 27 -134 37 -168 23z m190 -201 c16 -16 -2 -24 -27 -13 -12 6 -30 14 -40 17 -10 3 -16 10 -12 15 6 11 63 -3 79 -19z m175 -205 c1 -5 -6 -2 -15 7 -10 9 -13 21 -8 29 5 9 9 8 15 -7 4 -10 8 -23 8 -29z m121 -123 c0 -10 -7 -28 -16 -41 -20 -28 -4 -52 24 -35 13 9 26 3 64 -27 26 -20 60 -40 76 -43 15 -4 41 -18 57 -32 17 -15 38 -24 50 -22 15 3 27 -6 45 -34 13 -21 29 -38 35 -38 6 0 19 -17 30 -37 11 -21 27 -49 37 -63 20 -28 20 -92 0 -112 -9 -9 -12 -8 -12 5 0 9 -6 17 -14 17 -8 0 -28 14 -46 30 -18 17 -38 30 -45 30 -7 0 -19 7 -26 16 -10 12 -25 15 -58 11 -31 -3 -49 -1 -59 10 -9 8 -26 13 -39 10 -13 -2 -26 -1 -28 4 -3 4 -21 5 -41 2 -28 -5 -40 -1 -59 17 -14 13 -25 20 -25 15 0 -5 -6 -1 -13 9 -15 20 -109 45 -147 39 -13 -2 -31 0 -40 4 -27 12 -54 11 -68 -3 -14 -15 -54 -19 -66 -7 -10 10 -46 11 -46 1 0 -21 -33 -5 -43 22 -13 34 -23 37 -56 13 -23 -16 -25 -15 -43 10 -23 32 -43 35 -35 7 4 -15 0 -20 -14 -20 -11 0 -33 -7 -48 -15 -34 -17 -55 -5 -65 36 -4 20 0 30 24 47 16 12 38 22 49 22 11 0 21 4 23 8 2 5 35 30 75 56 59 39 77 47 101 42 19 -5 33 -2 41 8 9 11 20 12 44 5 18 -5 64 -9 103 -9 46 0 77 -5 90 -15 25 -19 53 -19 60 0 4 8 13 15 20 15 8 0 17 -7 20 -15 9 -21 34 -19 34 4 0 11 9 21 21 24 16 4 19 11 14 26 -4 12 -2 21 4 21 6 0 11 -8 11 -18z m-885 -62 c3 -5 1 -10 -4 -10 -6 0 -11 5 -11 10 0 6 2 10 4 10 3 0 8 -4 11 -10z m1155 -40 c0 -5 -2 -10 -4 -10 -3 0 -8 5 -11 10 -3 6 -1 10 4 10 6 0 11 -4 11 -10z m-1032 -134 c18 5 22 2 22 -15 0 -12 -6 -21 -15 -21 -8 0 -15 -3 -15 -7 0 -5 -13 -15 -29 -25 -28 -15 -30 -15 -44 0 -28 33 -28 52 -1 79 l26 26 17 -21 c11 -15 23 -20 39 -16z"/>
    <path d="M3850 2615 c-7 -9 -10 -18 -7 -21 3 -3 10 4 17 15 13 25 8 27 -10 6z"/>
    <path d="M2500 2558 c0 -9 7 -19 16 -22 25 -10 27 -1 4 19 -17 15 -20 16 -20 3z"/>
    <path d="M3816 2454 c-4 -10 -1 -14 6 -12 15 5 23 28 10 28 -5 0 -13 -7 -16 -16z"/>
    <path d="M1205 1950 c-3 -5 -1 -10 4 -10 6 0 11 5 11 10 0 6 -2 10 -4 10 -3 0 -8 -4 -11 -10z"/>
    <path d="M1685 1770 c3 -5 8 -10 11 -10 2 0 4 5 4 10 0 6 -5 10 -11 10 -5 0 -7 -4 -4 -10z"/>
    <path d="M1544 1595 c-4 -8 -3 -23 0 -32 6 -15 8 -15 23 -1 16 17 12 48 -7 48 -6 0 -13 -7 -16 -15z"/>
    <path d="M526 1170 c-102 -57 -146 -98 -197 -186 -52 -88 -137 -272 -163 -351 -20 -60 -22 -62 -103 -93 l-63 -25 0 -257 0 -258 418 0 c391 0 418 1 419 18 1 9 4 27 8 39 6 18 -1 25 -39 48 -43 25 -59 45 -36 45 15 0 12 44 -5 76 -8 16 -15 43 -15 60 0 17 -7 37 -15 44 -8 7 -15 18 -15 24 0 6 -9 17 -20 24 -11 7 -17 18 -14 27 4 8 3 23 -1 33 -5 9 -7 27 -6 40 1 12 -3 22 -9 22 -8 0 -10 11 -6 34 5 26 3 35 -9 40 -13 5 -15 16 -11 51 3 35 1 45 -10 45 -17 0 -18 12 -3 27 9 9 9 19 -1 42 -9 23 -11 89 -9 248 3 188 2 218 -11 220 -8 1 -46 -15 -84 -37z m198 -866 c3 -8 2 -12 -4 -9 -6 3 -10 10 -10 16 0 14 7 11 14 -7z"/>
    <path d="M3290 643 c0 -5 -9 -63 -20 -131 -31 -187 -128 -461 -178 -500 -14 -11 -2 -12 73 -10 89 3 90 3 90 28 0 18 5 25 18 24 9 -1 17 2 17 7 0 5 -4 9 -10 9 -12 0 -5 72 9 99 6 11 11 24 10 28 -1 4 0 10 1 13 10 26 16 107 23 293 3 75 -9 147 -25 147 -5 0 -8 -3 -8 -7z"/>
    <path d="M740 524 c0 -8 5 -12 10 -9 6 3 10 10 10 16 0 5 -4 9 -10 9 -5 0 -10 -7 -10 -16z"/>
    <path d="M3470 533 c0 -8 38 -135 52 -175 5 -14 17 -28 27 -31 18 -4 69 44 63 62 -2 7 7 9 27 5 17 -4 31 -3 31 2 0 13 -39 36 -50 29 -6 -4 -10 -2 -10 4 0 5 5 11 12 13 12 4 -72 67 -115 86 -32 14 -37 15 -37 5z"/>
    <path d="M795 520 c3 -5 8 -10 11 -10 2 0 4 5 4 10 0 6 -5 10 -11 10 -5 0 -7 -4 -4 -10z"/>
    <path d="M690 454 c0 -8 5 -12 10 -9 6 3 10 10 10 16 0 5 -4 9 -10 9 -5 0 -10 -7 -10 -16z"/>
    <path d="M735 390 c3 -5 8 -10 11 -10 2 0 4 5 4 10 0 6 -5 10 -11 10 -5 0 -7 -4 -4 -10z"/>
    <path d="M3928 383 c10 -4 10 -8 1 -20 -10 -11 -10 -16 0 -23 11 -6 9 -10 -6 -18 -11 -6 -25 -29 -33 -51 -7 -23 -20 -41 -28 -41 -8 0 -12 -6 -8 -15 6 -18 -33 -58 -51 -51 -17 7 -28 -14 -12 -24 10 -7 10 -12 1 -23 -7 -7 -9 -16 -6 -20 3 -3 -3 -14 -14 -25 -11 -11 -21 -25 -24 -32 -5 -15 -68 38 -68 57 0 17 20 17 20 1 0 -8 7 -5 15 6 13 18 12 21 -14 37 -16 10 -32 27 -35 37 -4 11 -14 23 -23 26 -12 5 -13 9 -4 20 8 10 8 16 -3 25 -12 10 -16 6 -25 -26 -6 -21 -11 -44 -11 -50 0 -7 -4 -13 -10 -13 -5 0 -10 5 -10 12 0 9 -3 9 -11 1 -7 -7 -8 -38 -4 -91 l8 -81 263 -1 c183 0 264 3 264 11 0 6 -8 8 -19 4 -27 -8 -33 19 -10 43 24 26 24 32 2 33 -14 0 -15 2 -3 6 22 9 30 24 30 60 0 27 -3 31 -17 26 -15 -5 -16 -3 -5 8 17 18 15 32 -3 25 -8 -3 -15 -3 -15 0 0 3 7 12 15 20 8 9 15 24 15 35 0 16 -7 19 -41 19 -35 0 -40 2 -34 19 5 16 2 18 -15 14 -14 -4 -20 -1 -20 11 0 9 -5 16 -11 16 -6 0 -8 9 -4 20 5 17 2 20 -22 19 -15 0 -22 -3 -15 -6z m117 -133 c3 -5 1 -10 -4 -10 -6 0 -11 5 -11 10 0 6 2 10 4 10 3 0 8 -4 11 -10z m-95 -34 c0 -2 -7 -6 -15 -10 -8 -3 -15 -1 -15 4 0 6 7 10 15 10 8 0 15 -2 15 -4z m-20 -51 c10 -13 9 -15 -9 -15 -12 0 -21 6 -21 15 0 8 4 15 9 15 5 0 14 -7 21 -15z m-269 -15 c5 0 9 -4 9 -8 0 -5 -13 -7 -30 -4 -16 2 -27 9 -24 14 3 5 13 7 21 4 8 -3 19 -6 24 -6z m329 -18 c0 -13 -12 -22 -22 -16 -10 6 -1 24 13 24 5 0 9 -4 9 -8z m-57 -50 c-16 -16 -16 -17 0 -20 10 -2 15 -8 12 -13 -4 -5 2 -9 12 -10 13 0 12 -3 -7 -10 -17 -7 -26 -7 -28 1 -2 6 -10 16 -17 24 -12 11 -11 17 6 35 11 12 24 19 30 16 5 -4 2 -14 -8 -23z m47 -12 c0 -5 -2 -10 -4 -10 -3 0 -8 5 -11 10 -3 6 -1 10 4 10 6 0 11 -4 11 -10z"/>
    <path d="M3802 330 c15 -23 28 -26 28 -6 0 8 -7 17 -16 20 -24 9 -25 8 -12 -14z"/>
    <path d="M3674 309 c-3 -5 -1 -9 5 -9 5 0 16 -3 25 -6 9 -3 16 -2 16 4 0 13 -38 23 -46 11z"/>
    <path d="M3796 297 c3 -10 9 -15 12 -12 3 3 0 11 -7 18 -10 9 -11 8 -5 -6z"/>
    <path d="M3746 284 c-9 -22 -8 -24 9 -24 8 0 15 6 15 14 0 22 -17 28 -24 10z"/>
    <path d="M1041 224 c0 -7 -10 -14 -21 -17 -20 -5 -20 -6 3 -31 24 -25 47 -34 47 -18 0 4 -4 12 -9 17 -5 6 -11 21 -14 35 -2 14 -5 20 -6 14z"/>
    <path d="M3345 180 c3 -5 8 -10 11 -10 2 0 4 5 4 10 0 6 -5 10 -11 10 -5 0 -7 -4 -4 -10z"/>
    <path d="M870 160 c0 -5 5 -10 11 -10 5 0 7 5 4 10 -3 6 -8 10 -11 10 -2 0 -4 -4 -4 -10z"/>
    <path d="M3332 133 c-4 -45 -9 -62 -21 -76 -10 -13 -9 -18 9 -27 12 -6 18 -16 14 -23 -4 -7 -3 -8 2 -4 5 5 9 24 9 43 0 44 19 49 23 7 3 -32 20 -45 26 -20 2 6 8 27 14 46 10 29 9 34 -8 38 -11 3 -20 9 -20 14 0 5 -7 6 -15 3 -8 -4 -15 -1 -15 5 0 18 -16 12 -18 -6z"/>
    <path d="M3463 134 c-6 -16 11 -34 34 -34 8 0 8 6 0 25 -14 29 -25 32 -34 9z"/>
    <path d="M885 70 c-3 -5 -1 -10 4 -10 6 0 11 5 11 10 0 6 -2 10 -4 10 -3 0 -8 -4 -11 -10z"/>
    <path d="M3475 69 c-9 -14 3 -59 16 -59 7 0 9 9 6 22 -4 12 -1 28 5 35 8 10 7 13 -5 13 -9 0 -19 -5 -22 -11z"/>
    <path d="M3285 10 c-3 -5 1 -10 9 -10 9 0 16 5 16 10 0 6 -4 10 -9 10 -6 0 -13 -4 -16 -10z"/>
  </g>
</svg>